<?xml version="1.0" standalone="no"?>
<!DOCTYPE svg PUBLIC "-//W3C//DTD SVG 20010904//EN"
 "http://www.w3.org/TR/2001/REC-SVG-20010904/DTD/svg10.dtd">
<svg version="1.0" xmlns="http://www.w3.org/2000/svg"
 width="213.000000pt" height="128.000000pt" viewBox="0 0 213.000000 128.000000"
 preserveAspectRatio="xMidYMid meet">

<g transform="translate(0.000000,128.000000) scale(0.100000,-0.100000)"
fill="#000000" stroke="none">
<path d="M193 948 c-17 -8 -20 -16 -16 -43 4 -24 1 -34 -11 -38 -19 -7 -46 1
-46 14 0 21 -38 7 -60 -23 -20 -27 -21 -34 -10 -52 24 -37 29 -89 18 -167 -10
-68 -9 -81 8 -115 18 -37 74 -84 98 -84 6 0 4 5 -4 10 -13 8 -12 10 4 10 20 0
20 0 0 15 -25 19 -38 19 -30 -1 4 -11 -2 -10 -25 6 -34 25 -34 46 2 42 19 -2
21 -1 9 7 -12 9 -11 11 8 11 12 0 22 -4 22 -10 0 -5 8 -10 18 -10 14 0 15 2 2
10 -12 8 -8 10 15 11 17 1 35 1 41 0 16 -2 26 27 12 35 -5 4 -14 0 -19 -7 -6
-10 -8 -6 -6 11 0 14 8 30 17 37 10 8 11 12 3 13 -7 0 -13 8 -13 18 0 14 2 15
10 2 9 -13 11 -13 20 0 7 11 5 16 -5 18 -18 4 -19 24 -3 40 10 10 10 15 -1 21
-11 7 -10 11 5 20 11 6 13 11 7 11 -15 0 -18 40 -4 40 5 0 12 -8 14 -17 4 -14
5 -12 6 5 1 30 27 28 33 -3 3 -14 1 -25 -3 -25 -5 0 -9 8 -10 18 0 14 -2 14
-9 -3 -12 -27 -12 -43 0 -25 9 13 10 13 10 0 0 -20 -11 -35 -32 -43 -10 -3
-18 -11 -18 -16 0 -11 27 -4 49 13 10 7 9 2 -3 -16 -12 -18 -14 -28 -6 -33 7
-4 14 2 17 14 9 36 28 17 27 -27 -1 -23 3 -42 9 -42 5 0 7 -13 4 -30 -4 -16
-2 -30 3 -30 5 0 11 12 13 28 l4 27 2 -27 c1 -21 6 -28 21 -28 11 0 19 -3 18
-7 -2 -5 2 -8 7 -8 6 0 9 3 7 8 -1 4 18 7 43 7 25 0 45 -5 45 -11 0 -5 -5 -7
-12 -3 -7 4 -8 3 -4 -5 4 -6 2 -20 -6 -29 -12 -15 -11 -16 4 -3 30 23 41 84
29 162 -12 73 -8 107 17 150 14 24 13 29 -9 58 -22 31 -52 40 -64 21 -9 -15
-42 -12 -49 5 -3 8 -3 22 1 31 12 31 -25 44 -116 43 -47 0 -96 -5 -108 -11z
m196 -73 c2 -3 6 -14 8 -25 2 -18 -1 -19 -25 -14 -54 14 -69 23 -74 47 l-5 24
45 -14 c25 -7 48 -15 51 -18z m65 -35 c31 0 58 -22 51 -42 -6 -14 -11 -14 -54
0 -45 14 -47 16 -37 38 6 13 13 19 14 14 2 -6 14 -10 26 -10z m-262 -29 c0 -3
-20 -11 -44 -18 -32 -9 -44 -9 -50 0 -10 16 9 36 46 45 24 7 33 5 40 -7 6 -9
9 -18 8 -20z m156 -58 c-1 -38 -2 -43 -8 -23 -5 16 -8 19 -9 8 -1 -10 -8 -18
-16 -18 -13 0 -14 4 -3 23 7 12 11 30 9 40 -1 9 4 17 13 17 11 0 14 -12 14
-47z m-186 -20 c-19 -7 -42 -19 -50 -25 -13 -11 -14 -9 -8 17 8 32 21 45 49
45 9 0 17 6 17 13 0 6 6 1 13 -13 12 -24 11 -26 -21 -37z m300 37 c11 0 23
-11 29 -26 13 -35 8 -38 -27 -19 -16 8 -37 15 -46 15 -15 0 -16 4 -6 25 8 18
15 22 22 15 5 -5 18 -10 28 -10z m-283 -77 c10 -21 8 -24 -26 -40 -21 -9 -40
-18 -43 -20 -3 -2 -6 9 -6 23 -2 20 4 28 27 36 16 5 29 15 29 21 0 13 4 9 19
-20z m286 8 c20 -12 30 -26 32 -44 1 -15 -2 -27 -8 -27 -5 0 -9 4 -9 9 0 5
-16 15 -35 22 -36 13 -43 23 -25 34 6 4 8 11 5 16 -9 13 6 10 40 -10z m-95
-91 c0 -5 -2 -10 -4 -10 -3 0 -8 5 -11 10 -3 6 -1 10 4 10 6 0 11 -4 11 -10z"/>
<path d="M661 921 c-12 -12 -21 -27 -21 -34 0 -18 29 -57 42 -57 6 0 4 8 -5
18 -20 22 -22 53 -5 70 15 15 64 16 71 2 3 -6 4 -5 3 2 -4 22 -63 21 -85 -1z"/>
<path d="M787 922 c-28 -31 -14 -92 20 -92 15 0 15 1 -1 13 -27 20 -18 81 12
85 13 2 30 -2 38 -8 20 -17 18 -67 -3 -80 -12 -8 -13 -10 -3 -7 8 2 21 15 29
29 13 23 13 29 -2 52 -21 31 -66 35 -90 8z"/>
<path d="M908 885 c5 -69 22 -73 22 -5 0 35 4 50 13 50 21 0 28 -12 15 -27 -9
-11 -9 -17 3 -23 11 -8 12 -13 1 -30 -7 -11 -8 -20 -2 -20 5 0 14 9 20 19 7
15 6 23 -5 35 -10 10 -11 16 -3 18 25 9 -1 38 -34 38 l-33 0 3 -55z"/>
<path d="M1009 931 c9 -6 12 -23 10 -55 -2 -25 -1 -46 3 -46 3 0 8 25 10 55 3
50 1 55 -17 55 -15 0 -17 -2 -6 -9z"/>
<path d="M1068 885 c4 -53 22 -79 22 -31 0 18 7 26 23 29 l22 4 -22 2 c-16 1
-23 7 -23 22 0 17 5 20 25 17 14 -3 25 -1 25 3 0 5 -17 9 -37 9 l-38 0 3 -55z"/>
<path d="M1168 885 c5 -69 22 -73 22 -5 0 43 3 50 20 50 23 0 27 -28 5 -36 -8
-4 -15 -9 -15 -13 1 -13 41 -54 47 -47 3 3 -2 15 -12 26 -16 18 -16 20 -1 36
23 22 4 44 -38 44 l-31 0 3 -55z"/>
<path d="M1278 885 c2 -30 7 -55 11 -55 3 0 5 19 3 43 l-3 42 38 -42 c21 -24
41 -43 45 -43 3 0 8 25 10 55 2 33 -1 55 -7 55 -6 0 -9 -20 -6 -47 l3 -48 -38
47 c-22 27 -43 48 -49 48 -6 0 -9 -23 -7 -55z"/>
<path d="M1426 927 c-34 -25 -17 -97 22 -97 12 0 11 4 -6 16 -25 17 -29 56 -8
74 43 35 99 -28 61 -70 -21 -23 -14 -27 9 -4 51 51 -19 124 -78 81z"/>
<path d="M1588 885 c4 -55 4 -55 36 -55 56 0 87 58 50 94 -8 9 -32 16 -52 16
l-37 0 3 -55z m83 24 c16 -31 -3 -69 -36 -69 -23 0 -25 4 -25 45 0 41 2 45 25
45 15 0 29 -8 36 -21z"/>
<path d="M1718 885 c4 -55 22 -79 22 -29 0 21 4 25 20 21 12 -3 20 0 20 8 0 8
-8 11 -20 8 -16 -4 -20 0 -20 17 0 18 4 21 25 18 14 -3 25 -1 25 3 0 5 -17 9
-37 9 l-38 0 3 -55z"/>
<path d="M1859 931 c9 -6 12 -23 10 -55 -2 -25 -1 -46 3 -46 3 0 8 25 10 55 3
50 1 55 -17 55 -15 0 -17 -2 -6 -9z"/>
<path d="M1987 895 c-23 -48 -21 -59 2 -15 l19 35 17 -42 c10 -24 21 -43 26
-43 4 0 -1 23 -13 50 -11 28 -24 50 -27 50 -4 0 -15 -16 -24 -35z"/>
<path d="M736 859 c3 -6 0 -15 -7 -20 -11 -7 -10 -9 4 -9 10 0 17 8 17 20 0
11 -5 20 -11 20 -5 0 -7 -5 -3 -11z"/>
<path d="M1920 840 c-13 -8 -12 -10 3 -10 9 0 17 5 17 10 0 12 -1 12 -20 0z"/>
<path d="M655 715 c0 -63 1 -65 25 -64 14 0 19 3 13 6 -8 3 -13 25 -13 59 0
51 1 54 25 54 33 0 35 -37 3 -50 -14 -5 -17 -9 -7 -9 25 -1 51 24 47 45 -2 15
-13 20 -48 22 l-45 3 0 -66z"/>
<path d="M775 715 c0 -63 1 -65 25 -64 14 0 19 3 13 6 -8 3 -13 25 -13 59 0
47 3 54 19 54 11 0 22 -4 25 -9 9 -14 -4 -39 -20 -43 -11 -2 -10 -10 8 -35 13
-18 29 -33 36 -33 8 0 5 10 -9 29 -20 27 -20 31 -5 52 21 30 5 49 -43 49 l-36
0 0 -65z"/>
<path d="M915 766 c-22 -16 -26 -76 -6 -100 19 -23 77 -20 101 4 24 24 26 72
4 94 -19 20 -74 21 -99 2z m83 -8 c7 -7 12 -26 12 -43 0 -53 -43 -73 -82 -38
-35 32 -15 93 30 93 16 0 33 -5 40 -12z"/>
<path d="M1079 715 c27 -68 35 -77 44 -47 2 9 8 26 12 37 4 13 2 12 -8 -5
l-15 -24 -16 39 c-9 21 -14 45 -12 52 3 8 -2 13 -13 13 -18 0 -17 -4 8 -65z"/>
<path d="M1144 754 c-2 -28 -1 -28 15 4 9 17 9 22 -1 22 -7 0 -14 -12 -14 -26z"/>
<path d="M1195 715 c0 -63 1 -65 25 -64 14 0 19 3 13 6 -8 3 -13 25 -13 58 0
33 5 55 13 58 6 3 1 6 -13 6 -24 1 -25 -1 -25 -64z"/>
<path d="M1265 715 c0 -37 4 -65 10 -65 6 0 9 22 7 52 l-3 53 49 -55 c28 -30
53 -52 56 -49 3 3 -5 18 -18 32 -14 15 -37 42 -52 62 -39 51 -49 45 -49 -30z"/>
<path d="M1368 773 c6 -2 18 -2 25 0 6 3 1 5 -13 5 -14 0 -19 -2 -12 -5z"/>
<path d="M1442 764 c-30 -21 -30 -77 0 -98 24 -17 83 -22 92 -8 3 5 -8 6 -25
4 -19 -3 -37 2 -49 13 -22 20 -26 65 -8 83 16 16 75 15 81 0 3 -8 6 -6 6 5 1
13 -7 17 -37 17 -21 0 -48 -7 -60 -16z"/>
<path d="M1565 715 c0 -51 3 -65 15 -65 12 0 15 14 15 65 0 51 -3 65 -15 65
-12 0 -15 -14 -15 -65z"/>
<path d="M1661 722 c-14 -31 -30 -60 -35 -64 -6 -4 -2 -8 11 -8 16 0 20 5 16
20 -5 17 0 20 32 20 32 0 37 -3 32 -20 -4 -16 0 -20 21 -19 15 0 22 3 16 5 -6
3 -22 32 -35 64 -13 33 -26 60 -29 60 -3 0 -16 -26 -29 -58z m38 1 c11 -21 9
-23 -13 -23 -24 0 -25 2 -14 25 6 14 12 24 13 23 1 -2 8 -13 14 -25z"/>
<path d="M1819 771 c9 -6 12 -25 10 -65 l-4 -56 36 0 c50 0 82 28 82 70 0 43
-24 60 -87 60 -32 0 -46 -3 -37 -9z m95 -17 c9 -8 16 -23 16 -32 0 -29 -30
-62 -56 -62 -23 0 -24 3 -24 55 0 52 2 55 24 55 14 0 32 -7 40 -16z"/>
<path d="M1969 771 c9 -6 12 -25 10 -65 l-4 -56 45 2 c37 1 39 2 13 5 -28 4
-33 8 -33 30 0 22 4 25 25 21 20 -4 25 -1 24 16 0 11 -3 15 -6 9 -2 -7 -13
-13 -24 -13 -14 0 -19 7 -19 25 0 20 5 25 24 25 13 0 27 -6 29 -12 3 -8 6 -6
6 5 1 14 -8 17 -51 17 -33 0 -48 -3 -39 -9z"/>
<path d="M284 628 c-5 -7 0 -9 14 -6 16 4 19 2 15 -11 -4 -14 -3 -14 6 -1 6 8
11 18 11 23 0 12 -38 8 -46 -5z"/>
<path d="M970 630 c-9 -6 -10 -10 -3 -10 6 0 15 5 18 10 8 12 4 12 -15 0z"/>
<path d="M290 595 c-1 -11 -4 -14 -7 -7 -8 19 -23 14 -16 -5 9 -23 29 -43 42
-43 15 0 13 20 -4 50 -13 23 -14 23 -15 5z"/>
<path d="M699 595 c-55 -30 -61 -110 -13 -156 20 -19 37 -24 74 -24 27 0 54 5
60 11 8 8 -2 10 -39 6 -45 -4 -52 -2 -75 23 -70 75 19 187 102 129 19 -13 22
-13 22 -1 0 30 -85 37 -131 12z"/>
<path d="M900 597 c-34 -17 -52 -55 -46 -100 8 -72 68 -103 140 -73 68 28 84
122 29 166 -29 23 -85 26 -123 7z m100 -17 c65 -65 11 -183 -69 -150 -51 21
-70 111 -31 150 26 26 74 26 100 0z"/>
<path d="M1088 603 c15 -6 17 -164 2 -179 -7 -7 -2 -9 17 -7 l28 4 -3 81 c-4
88 3 104 42 94 44 -11 30 -76 -16 -76 -15 0 -12 -9 19 -50 21 -29 45 -50 56
-50 15 0 12 7 -17 42 -20 23 -36 44 -36 47 0 4 10 11 23 16 28 13 35 54 11 72
-10 8 -43 13 -78 12 -34 0 -55 -3 -48 -6z"/>
<path d="M1278 601 c10 -6 13 -31 10 -94 l-3 -85 35 -4 c58 -5 87 2 114 28 48
49 41 123 -14 151 -28 14 -164 18 -142 4z m141 -26 c10 -10 16 -33 16 -61 0
-55 -28 -84 -81 -84 l-34 0 0 78 c0 43 3 82 8 86 11 12 74 -1 91 -19z"/>
<path d="M1518 580 c-27 -28 -30 -36 -25 -76 6 -53 28 -81 72 -90 40 -7 99 17
116 47 6 13 12 41 12 63 0 55 -36 86 -99 86 -37 0 -51 -5 -76 -30z m107 14
c19 -8 45 -55 45 -84 0 -60 -56 -103 -103 -79 -35 19 -46 41 -47 87 0 65 46
98 105 76z"/>
<path d="M1728 601 c10 -6 13 -31 10 -97 l-3 -89 41 1 c49 2 80 17 89 44 7 21
-10 60 -26 60 -6 0 -3 10 5 22 20 28 20 33 0 52 -10 11 -34 16 -72 16 -35 0
-52 -4 -44 -9z m90 -13 c17 -17 15 -45 -4 -52 -34 -13 -44 -7 -44 29 0 27 4
35 18 35 10 0 23 -5 30 -12z m6 -84 c31 -31 13 -74 -31 -74 -21 0 -23 5 -23
45 0 38 3 45 19 45 11 0 27 -7 35 -16z"/>
<path d="M1969 559 c-13 -30 -33 -73 -45 -96 -21 -42 -21 -43 -2 -43 11 0 16
4 13 10 -3 5 -1 19 5 30 16 30 86 29 96 -2 5 -13 7 -26 6 -30 -1 -5 7 -8 18
-8 18 0 17 6 -15 81 -53 123 -50 120 -76 58z m36 -25 c19 -46 20 -44 -15 -44
-16 0 -30 3 -30 7 0 9 23 73 27 73 1 0 10 -16 18 -36z"/>
<path d="M325 580 c3 -5 8 -10 11 -10 2 0 4 5 4 10 0 6 -5 10 -11 10 -5 0 -7
-4 -4 -10z"/>
<path d="M265 540 c-16 -26 25 -40 55 -19 11 8 7 9 -19 5 -27 -5 -32 -3 -27 9
6 17 0 20 -9 5z"/>
<path d="M210 519 c0 -5 5 -7 10 -4 6 3 10 8 10 11 0 2 -4 4 -10 4 -5 0 -10
-5 -10 -11z"/>
<path d="M370 519 c0 -5 5 -7 10 -4 6 3 10 8 10 11 0 2 -4 4 -10 4 -5 0 -10
-5 -10 -11z"/>
<path d="M324 475 c8 -8 18 -15 22 -15 3 0 1 7 -6 15 -7 8 -17 15 -22 15 -5 0
-3 -7 6 -15z"/>
<path d="M430 460 c-19 -11 -31 -19 -27 -20 11 0 67 29 67 35 0 7 -1 7 -40
-15z"/>
<path d="M353 425 c-12 -8 -24 -11 -27 -6 -7 11 -56 11 -56 -1 0 -5 5 -6 10
-3 6 3 10 1 10 -4 0 -6 7 -11 16 -11 14 0 14 -3 4 -15 -12 -14 -16 -13 -36 6
-13 12 -22 25 -19 28 2 4 -8 8 -23 9 -27 2 -27 2 5 -18 18 -10 38 -28 45 -39
11 -18 12 -18 31 6 11 14 34 34 51 44 17 10 26 19 21 19 -6 0 -20 -7 -32 -15z"/>
</g>
</svg>
